<svg width="50" height="50" viewBox="0 0 50 50" fill="none" xmlns="http://www.w3.org/2000/svg">
<path d="M25.3274 45.4654H42.4484C42.4484 45.4654 44.2953 45.086 44.2953 40.6036C44.2953 36.1212 48.2886 16.105 24.7883 16.105C1.28797 16.105 5.40102 39.0662 5.40102 39.0662C5.40102 39.0662 4.32284 45.8847 7.72709 45.7249C11.1313 45.5652 25.3274 45.4654 25.3274 45.4654Z" fill="white"/>
<path d="M45.4531 33.5156H48.5279V39.2959H45.4531V33.5156ZM1.52734 33.5156H4.60215V39.2959H1.52734V33.5156Z" fill="#EA5D5C"/>
<path d="M12.9639 27.0106L36.554 26.9612L36.5709 35.0275L12.9808 35.0769L12.9639 27.0106Z" fill="#4C66AF"/>
<path d="M47.9189 32.1379H45.3932C45.2534 25.6888 42.528 21.1564 38.0955 18.3811L42.9872 8.26819C43.4256 8.23606 43.8411 8.06017 44.1694 7.76779C44.4976 7.47541 44.7202 7.08289 44.8025 6.65112C44.8849 6.21934 44.8225 5.77245 44.625 5.37976C44.4275 4.98706 44.1059 4.67053 43.7102 4.47924C43.3144 4.28796 42.8666 4.23262 42.4362 4.32181C42.0057 4.411 41.6168 4.63974 41.3296 4.97254C41.0425 5.30534 40.8731 5.7236 40.8479 6.16244C40.8228 6.60128 40.9431 7.03617 41.1903 7.39966L36.3285 17.4327C32.7354 15.8449 28.8347 15.0743 24.9078 15.1765C20.9654 15.0908 17.0535 15.8854 13.4571 17.5026L8.5454 7.51945C8.79036 7.15473 8.90819 6.7194 8.88061 6.28092C8.85304 5.84244 8.68161 5.42529 8.39289 5.09413C8.10417 4.76297 7.71428 4.53628 7.28365 4.4492C6.85302 4.36213 6.40569 4.41952 6.01098 4.61248C5.61628 4.80545 5.29624 5.12322 5.10047 5.51654C4.9047 5.90986 4.84413 6.35677 4.92814 6.78801C5.01215 7.21925 5.23605 7.61074 5.56515 7.90181C5.89425 8.19288 6.31016 8.36728 6.74843 8.39797L11.74 18.5109C7.33744 21.2862 4.65198 25.8485 4.53218 32.2776H2.02641C1.49687 32.2776 0.989024 32.488 0.614584 32.8624C0.240143 33.2369 0.0297852 33.7447 0.0297852 34.2743V39.2658C0.0297852 39.7954 0.240143 40.3032 0.614584 40.6776C0.989024 41.0521 1.49687 41.2624 2.02641 41.2624H4.51221V43.7183C4.51221 44.5126 4.82775 45.2744 5.38941 45.836C5.95107 46.3977 6.71285 46.7132 7.50715 46.7132L42.4481 46.6434C43.2424 46.6434 44.0042 46.3278 44.5659 45.7662C45.1275 45.2045 45.4431 44.4427 45.4431 43.6484V41.1926H47.9488C48.4784 41.1926 48.9862 40.9822 49.3607 40.6078C49.7351 40.2333 49.9455 39.7255 49.9455 39.1959V34.2044C49.955 33.9338 49.9094 33.6641 49.8114 33.4118C49.7134 33.1594 49.5652 32.9296 49.3756 32.7363C49.186 32.543 48.9592 32.3902 48.7087 32.2874C48.4583 32.1845 48.1896 32.1336 47.9189 32.1379ZM3.99309 39.2159H1.99646V34.2243H3.99309V39.2159ZM43.4265 43.5885C43.4265 43.8533 43.3213 44.1072 43.1341 44.2944C42.9469 44.4817 42.6929 44.5868 42.4282 44.5868L7.48719 44.6567C7.22242 44.6567 6.96849 44.5515 6.78127 44.3643C6.59405 44.1771 6.48887 43.9232 6.48887 43.6584V32.677C6.48887 18.7006 19.3671 17.1731 24.9277 17.1632C30.4883 17.1532 43.3965 18.6307 43.4265 32.5971V43.5885ZM47.8989 39.1261H45.9023V34.1345H47.8989V39.1261Z" fill="#3F4651"/>
<path d="M19.7065 9.04692L20.6549 8.21832L22.3521 10.8638C22.4678 11.0447 22.6273 11.1935 22.8157 11.2964C23.0042 11.3994 23.2155 11.4532 23.4303 11.4529H23.5501C23.7855 11.4301 24.01 11.3425 24.1986 11.1998C24.3872 11.057 24.5325 10.8647 24.6183 10.6442L25.4968 7.28988L26.3952 10.4446V10.5344C26.4806 10.7464 26.6209 10.9318 26.8016 11.0717C26.9824 11.2115 27.1971 11.3008 27.4237 11.3302C27.6503 11.3597 27.8807 11.3283 28.0912 11.2394C28.3017 11.1504 28.4847 11.007 28.6215 10.8239L29.9093 8.39801L30.4684 8.94709C30.7076 9.18369 31.0304 9.31642 31.3668 9.31646H33.8127C34.0775 9.31646 34.3314 9.21128 34.5186 9.02406C34.7059 8.83684 34.811 8.58292 34.811 8.31815C34.811 8.05338 34.7059 7.79945 34.5186 7.61223C34.3314 7.42501 34.0775 7.31983 33.8127 7.31983H31.6863L30.688 6.32152C30.5561 6.19296 30.3982 6.09418 30.2248 6.03186C30.0515 5.96955 29.8668 5.94513 29.6833 5.96027C29.4997 5.97541 29.3215 6.02975 29.1607 6.11963C28.9999 6.2095 28.8603 6.33281 28.7513 6.48125L27.8428 8.17838L26.6947 4.10526C26.6006 3.86689 26.437 3.66232 26.2252 3.51812C26.0133 3.37392 25.763 3.29675 25.5067 3.29663C25.2505 3.29675 25.0002 3.37392 24.7883 3.51812C24.5765 3.66232 24.4129 3.86689 24.3188 4.10526L23.1907 8.41798L21.9328 6.42135C21.8365 6.26956 21.7094 6.13962 21.5598 6.0399C21.4102 5.94017 21.2414 5.87287 21.0643 5.84233C20.8869 5.81979 20.7068 5.83385 20.5351 5.88364C20.3634 5.93344 20.2037 6.01791 20.0659 6.13184L18.6983 7.32982H16.1526C15.8878 7.32982 15.6339 7.435 15.4466 7.62222C15.2594 7.80944 15.1542 8.06336 15.1542 8.32813C15.1542 8.5929 15.2594 8.84683 15.4466 9.03405C15.6339 9.22127 15.8878 9.32644 16.1526 9.32644H18.9578C19.2302 9.31238 19.4916 9.21478 19.7065 9.04692ZM32.9142 25.8885H17.1509C15.8845 25.8716 14.6564 26.3228 13.7021 27.1555C12.7478 27.9882 12.1344 29.1438 11.9796 30.4008C11.9126 31.0955 11.992 31.7964 12.2127 32.4585C12.4333 33.1205 12.7904 33.729 13.2607 34.2445C13.7311 34.76 14.3043 35.1712 14.9434 35.4514C15.5826 35.7317 16.2733 35.8748 16.9712 35.8716H32.7345C34.001 35.8885 35.229 35.4373 36.1833 34.6046C37.1376 33.7719 37.751 32.6162 37.9058 31.3592C37.9728 30.6646 37.8934 29.9636 37.6727 29.3016C37.4521 28.6395 37.095 28.0311 36.6247 27.5156C36.1543 27.0001 35.5811 26.5889 34.942 26.3086C34.3029 26.0284 33.6121 25.8852 32.9142 25.8885ZM32.9142 33.875H17.061C16.3523 33.8901 15.66 33.6599 15.1015 33.2233C14.543 32.7867 14.1525 32.1705 13.9962 31.479C13.9075 31.0447 13.9164 30.596 14.0222 30.1655C14.1279 29.735 14.3279 29.3333 14.6078 28.9895C14.8876 28.6457 15.2403 28.3682 15.6404 28.1772C16.0405 27.9863 16.4779 27.8865 16.9213 27.8851H32.7745C33.4832 27.8699 34.1754 28.1002 34.734 28.5368C35.2925 28.9734 35.6829 29.5896 35.8393 30.281C35.9276 30.7138 35.9192 31.1607 35.8146 31.5897C35.7099 32.0188 35.5117 32.4194 35.234 32.7629C34.9564 33.1064 34.6062 33.3842 34.2086 33.5765C33.811 33.7687 33.3758 33.8706 32.9342 33.875H32.9142Z" fill="#3F4651"/>
</svg>
