<svg width="16" height="16" viewBox="0 0 16 16" fill="none" xmlns="http://www.w3.org/2000/svg">
<path d="M8.00016 10.3847L5.64083 8.02604L6.11283 7.54604L7.66683 9.10004V3.33337H8.3335V9.10004L9.88683 7.54671L10.3595 8.02604L8.00016 10.3847ZM4.41083 12.6667C4.10372 12.6667 3.8475 12.564 3.64216 12.3587C3.43683 12.1534 3.33394 11.8969 3.3335 11.5894V9.97404H4.00016V11.5894C4.00016 11.692 4.04283 11.7863 4.12816 11.872C4.2135 11.9578 4.3075 12.0005 4.41016 12H11.5902C11.6924 12 11.7864 11.9574 11.8722 11.872C11.9579 11.7867 12.0006 11.6925 12.0002 11.5894V9.97404H12.6668V11.5894C12.6668 11.8965 12.5642 12.1527 12.3588 12.358C12.1535 12.5634 11.8971 12.6663 11.5895 12.6667H4.41083Z" fill="white"/>
</svg>
