<svg width="17" height="16" viewBox="0 0 17 16" fill="none" xmlns="http://www.w3.org/2000/svg">
<mask id="path-1-inside-1_3339_52" fill="white">
<path d="M3.95147 13.9786C3.72137 13.9722 3.49491 13.9195 3.28555 13.8238C3.07619 13.7281 2.88819 13.5913 2.73273 13.4216C2.57726 13.2518 2.4575 13.0525 2.38055 12.8356C2.30361 12.6186 2.27105 12.3884 2.28481 12.1586C2.27681 10.7233 2.28481 9.28795 2.28481 7.85262C2.28481 7.76421 2.31992 7.67943 2.38244 7.61692C2.44495 7.55441 2.52973 7.51929 2.61814 7.51929C2.70654 7.51929 2.79133 7.55441 2.85384 7.61692C2.91635 7.67943 2.95147 7.76421 2.95147 7.85262C2.95147 9.31929 2.93014 10.786 2.95147 12.2526C2.96214 12.9906 3.51681 13.312 4.17681 13.312H12.4855C12.6952 13.3167 12.9014 13.2575 13.0767 13.1423C13.252 13.027 13.3881 12.8611 13.4668 12.6666C13.5311 12.4367 13.5536 12.1972 13.5335 11.9593V7.85262C13.5335 7.76421 13.5686 7.67943 13.6311 7.61692C13.6936 7.55441 13.7784 7.51929 13.8668 7.51929C13.9552 7.51929 14.04 7.55441 14.1025 7.61692C14.165 7.67943 14.2001 7.76421 14.2001 7.85262C14.2001 9.33529 14.2568 10.8293 14.2001 12.3106C14.1944 12.5375 14.1436 12.7609 14.0507 12.9679C13.9578 13.175 13.8247 13.3615 13.659 13.5166C13.4934 13.6717 13.2985 13.7923 13.0859 13.8714C12.8732 13.9505 12.6469 13.9865 12.4201 13.9773L3.95147 13.9786Z"/>
</mask>
<path d="M3.95147 13.9786C3.72137 13.9722 3.49491 13.9195 3.28555 13.8238C3.07619 13.7281 2.88819 13.5913 2.73273 13.4216C2.57726 13.2518 2.4575 13.0525 2.38055 12.8356C2.30361 12.6186 2.27105 12.3884 2.28481 12.1586C2.27681 10.7233 2.28481 9.28795 2.28481 7.85262C2.28481 7.76421 2.31992 7.67943 2.38244 7.61692C2.44495 7.55441 2.52973 7.51929 2.61814 7.51929C2.70654 7.51929 2.79133 7.55441 2.85384 7.61692C2.91635 7.67943 2.95147 7.76421 2.95147 7.85262C2.95147 9.31929 2.93014 10.786 2.95147 12.2526C2.96214 12.9906 3.51681 13.312 4.17681 13.312H12.4855C12.6952 13.3167 12.9014 13.2575 13.0767 13.1423C13.252 13.027 13.3881 12.8611 13.4668 12.6666C13.5311 12.4367 13.5536 12.1972 13.5335 11.9593V7.85262C13.5335 7.76421 13.5686 7.67943 13.6311 7.61692C13.6936 7.55441 13.7784 7.51929 13.8668 7.51929C13.9552 7.51929 14.04 7.55441 14.1025 7.61692C14.165 7.67943 14.2001 7.76421 14.2001 7.85262C14.2001 9.33529 14.2568 10.8293 14.2001 12.3106C14.1944 12.5375 14.1436 12.7609 14.0507 12.9679C13.9578 13.175 13.8247 13.3615 13.659 13.5166C13.4934 13.6717 13.2985 13.7923 13.0859 13.8714C12.8732 13.9505 12.6469 13.9865 12.4201 13.9773L3.95147 13.9786Z" fill="white"/>
<path d="M3.95147 13.9786L3.89529 15.9778L3.92353 15.9786L3.95179 15.9786L3.95147 13.9786ZM2.28481 12.1586L4.28123 12.2782L4.28514 12.2129L4.28477 12.1475L2.28481 12.1586ZM2.95147 12.2526L4.95126 12.2237L4.95126 12.2235L2.95147 12.2526ZM12.4855 13.312L12.531 11.3125L12.5082 11.312H12.4855V13.312ZM13.4668 12.6666L15.3207 13.4171L15.3628 13.3131L15.393 13.205L13.4668 12.6666ZM13.5335 11.9593H11.5335V12.0439L11.5406 12.1283L13.5335 11.9593ZM14.2001 12.3106L12.2016 12.2342L12.2011 12.2471L12.2008 12.2601L14.2001 12.3106ZM12.4201 13.9773L12.501 11.9789L12.4604 11.9773L12.4198 11.9773L12.4201 13.9773ZM4.00766 11.9794C4.04543 11.9805 4.0826 11.9891 4.11696 12.0048L2.45413 15.6428C2.90722 15.8499 3.39731 15.9638 3.89529 15.9778L4.00766 11.9794ZM4.11696 12.0048C4.15133 12.0205 4.18219 12.043 4.20771 12.0708L1.25774 14.7723C1.59419 15.1397 2.00104 15.4357 2.45413 15.6428L4.11696 12.0048ZM4.20771 12.0708C4.23323 12.0987 4.25288 12.1314 4.26551 12.167L0.495595 13.5041C0.662117 13.9736 0.921297 14.4049 1.25774 14.7723L4.20771 12.0708ZM4.26551 12.167C4.27814 12.2026 4.28349 12.2404 4.28123 12.2782L0.288381 12.0391C0.258607 12.5364 0.329073 13.0346 0.495595 13.5041L4.26551 12.167ZM4.28477 12.1475C4.27681 10.7186 4.28481 9.30375 4.28481 7.85262H0.284806C0.284806 9.27216 0.2768 10.7279 0.284837 12.1698L4.28477 12.1475ZM4.28481 7.85262C4.28481 8.29464 4.10921 8.71857 3.79665 9.03113L0.968223 6.2027C0.530636 6.64029 0.284806 7.23379 0.284806 7.85262H4.28481ZM3.79665 9.03113C3.48409 9.3437 3.06016 9.51929 2.61814 9.51929V5.51929C1.9993 5.51929 1.40581 5.76512 0.968223 6.2027L3.79665 9.03113ZM2.61814 9.51929C2.17611 9.51929 1.75219 9.34369 1.43963 9.03113L4.26805 6.2027C3.83047 5.76512 3.23697 5.51929 2.61814 5.51929V9.51929ZM1.43963 9.03113C1.12707 8.71857 0.951472 8.29465 0.951472 7.85262H4.95147C4.95147 7.23378 4.70564 6.64029 4.26805 6.2027L1.43963 9.03113ZM0.951472 7.85262C0.951472 9.27808 0.930104 10.7981 0.951684 12.2817L4.95126 12.2235C4.93017 10.7738 4.95147 9.3605 4.95147 7.85262H0.951472ZM0.951681 12.2815C0.965014 13.204 1.35053 14.062 2.09485 14.6394C2.77138 15.1641 3.55435 15.312 4.17681 15.312V11.312C4.13926 11.312 4.3149 11.2991 4.54643 11.4787C4.67119 11.5755 4.78379 11.709 4.86009 11.8691C4.93493 12.0261 4.9503 12.1567 4.95126 12.2237L0.951681 12.2815ZM4.17681 15.312H12.4855V11.312H4.17681V15.312ZM12.44 15.3114C13.0557 15.3254 13.6611 15.1517 14.1756 14.8133L11.9778 11.4712C12.1418 11.3634 12.3347 11.308 12.531 11.3125L12.44 15.3114ZM14.1756 14.8133C14.6902 14.4749 15.0896 13.9879 15.3207 13.4171L11.6129 11.9162C11.6866 11.7342 11.8139 11.579 11.9778 11.4712L14.1756 14.8133ZM15.393 13.205C15.5215 12.7451 15.5667 12.266 15.5263 11.7903L11.5406 12.1283L11.5406 12.1283L15.393 13.205ZM15.5335 11.9593V7.85262H11.5335V11.9593H15.5335ZM15.5335 7.85262C15.5335 8.29466 15.3579 8.71858 15.0453 9.03113L12.2169 6.2027C11.7793 6.64028 11.5335 7.23377 11.5335 7.85262H15.5335ZM15.0453 9.03113C14.7328 9.34369 14.3088 9.51929 13.8668 9.51929V5.51929C13.248 5.51929 12.6545 5.76512 12.2169 6.2027L15.0453 9.03113ZM13.8668 9.51929C13.4248 9.51929 13.0009 9.3437 12.6883 9.03113L15.5167 6.2027C15.0791 5.76512 14.4856 5.51929 13.8668 5.51929V9.51929ZM12.6883 9.03113C12.3757 8.71857 12.2001 8.29464 12.2001 7.85262H16.2001C16.2001 7.23379 15.9543 6.64029 15.5167 6.2027L12.6883 9.03113ZM12.2001 7.85262C12.2001 9.44337 12.2566 10.7975 12.2016 12.2342L16.1987 12.3871C16.257 10.8611 16.2001 9.22721 16.2001 7.85262H12.2001ZM12.2008 12.2601C12.2017 12.2218 12.2103 12.1841 12.226 12.1492L15.8754 13.7867C16.0769 13.3377 16.1871 12.8531 16.1995 12.3612L12.2008 12.2601ZM12.226 12.1492C12.2417 12.1143 12.2641 12.0828 12.2921 12.0566L15.026 14.9765C15.3852 14.6401 15.674 14.2357 15.8754 13.7867L12.226 12.1492ZM12.2921 12.0566C12.32 12.0305 12.3529 12.0101 12.3887 11.9968L13.783 15.7459C14.2442 15.5744 14.6668 15.3128 15.026 14.9765L12.2921 12.0566ZM12.3887 11.9968C12.4246 11.9834 12.4628 11.9774 12.501 11.9789L12.3392 15.9757C12.831 15.9956 13.3217 15.9175 13.783 15.7459L12.3887 11.9968ZM12.4198 11.9773L3.95116 11.9786L3.95179 15.9786L12.4205 15.9773L12.4198 11.9773Z" fill="white" mask="url(#path-1-inside-1_3339_52)"/>
<mask id="path-3-inside-2_3339_52" fill="white">
<path d="M8.47477 2.11729C8.41996 2.06125 8.34577 2.02833 8.26744 2.02529C8.2581 2.02618 8.24855 2.02484 8.23877 2.02129C8.2241 2.01595 8.22077 2.02129 8.21144 2.02529C8.13288 2.02816 8.05842 2.06109 8.00344 2.11729L5.55744 4.56329C5.49672 4.62615 5.46312 4.71036 5.46388 4.79775C5.46464 4.88515 5.4997 4.96876 5.5615 5.03056C5.6233 5.09236 5.70691 5.12742 5.7943 5.12818C5.8817 5.12894 5.9659 5.09534 6.02877 5.03462L7.9061 3.15795V10.3193C7.9061 10.4077 7.94122 10.4925 8.00374 10.555C8.06625 10.6175 8.15103 10.6526 8.23944 10.6526C8.32784 10.6526 8.41263 10.6175 8.47514 10.555C8.53765 10.4925 8.57277 10.4077 8.57277 10.3193V3.15795L10.4501 5.03462C10.513 5.09534 10.5972 5.12894 10.6846 5.12818C10.772 5.12742 10.8556 5.09236 10.9174 5.03056C10.9792 4.96876 11.0142 4.88515 11.015 4.79775C11.0158 4.71036 10.9822 4.62615 10.9214 4.56329L8.47477 2.11729Z"/>
</mask>
<path d="M8.47477 2.11729C8.41996 2.06125 8.34577 2.02833 8.26744 2.02529C8.2581 2.02618 8.24855 2.02484 8.23877 2.02129C8.2241 2.01595 8.22077 2.02129 8.21144 2.02529C8.13288 2.02816 8.05842 2.06109 8.00344 2.11729L5.55744 4.56329C5.49672 4.62615 5.46312 4.71036 5.46388 4.79775C5.46464 4.88515 5.4997 4.96876 5.5615 5.03056C5.6233 5.09236 5.70691 5.12742 5.7943 5.12818C5.8817 5.12894 5.9659 5.09534 6.02877 5.03462L7.9061 3.15795V10.3193C7.9061 10.4077 7.94122 10.4925 8.00374 10.555C8.06625 10.6175 8.15103 10.6526 8.23944 10.6526C8.32784 10.6526 8.41263 10.6175 8.47514 10.555C8.53765 10.4925 8.57277 10.4077 8.57277 10.3193V3.15795L10.4501 5.03462C10.513 5.09534 10.5972 5.12894 10.6846 5.12818C10.772 5.12742 10.8556 5.09236 10.9174 5.03056C10.9792 4.96876 11.0142 4.88515 11.015 4.79775C11.0158 4.71036 10.9822 4.62615 10.9214 4.56329L8.47477 2.11729Z" fill="white"/>
<path d="M8.47477 2.11729L7.04501 3.51578L7.05284 3.52378L7.06075 3.53169L8.47477 2.11729ZM8.26744 2.02529L8.34502 0.0267925L8.21117 0.021596L8.07782 0.034296L8.26744 2.02529ZM8.23877 2.02129L7.55528 3.90087L8.23877 2.02129ZM8.21144 2.02529L8.28451 4.02395L8.65683 4.01034L8.99928 3.86358L8.21144 2.02529ZM8.00344 2.11729L9.41765 3.5315L9.42538 3.52377L9.43303 3.51595L8.00344 2.11729ZM5.55744 4.56329L4.14322 3.14907L4.13094 3.16136L4.11886 3.17386L5.55744 4.56329ZM6.02877 5.03462L7.41819 6.4732L7.43057 6.46125L7.44273 6.44909L6.02877 5.03462ZM7.9061 3.15795H9.9061V-1.66926L6.49214 1.74349L7.9061 3.15795ZM8.57277 3.15795L9.98673 1.74349L6.57277 -1.66926V3.15795H8.57277ZM10.4501 5.03462L9.03614 6.44909L9.04831 6.46125L9.06068 6.4732L10.4501 5.03462ZM10.9214 4.56329L12.36 3.17386L12.3478 3.16126L12.3355 3.14888L10.9214 4.56329ZM9.90453 0.718793C9.49224 0.297288 8.9342 0.0496655 8.34502 0.0267925L8.18985 4.02378C7.75734 4.00699 7.34767 3.82521 7.04501 3.51578L9.90453 0.718793ZM8.07782 0.034296C8.39528 0.00406218 8.6838 0.0549897 8.92226 0.1417L7.55528 3.90087C7.81329 3.9947 8.12093 4.04829 8.45706 4.01628L8.07782 0.034296ZM8.92226 0.1417C8.80076 0.0975208 8.61325 0.0421085 8.37798 0.0246091C8.12168 0.00554562 7.87204 0.0360537 7.64076 0.106444C7.44113 0.167206 7.29374 0.248345 7.28362 0.253692C7.24267 0.275315 7.33176 0.226357 7.4236 0.186997L8.99928 3.86358C9.09578 3.82222 9.18879 3.77109 9.15155 3.79076C9.14513 3.79415 9.00125 3.87353 8.80544 3.93313C8.578 4.00235 8.33253 4.03228 8.08127 4.01359C7.85105 3.99647 7.66944 3.94239 7.55528 3.90087L8.92226 0.1417ZM8.13837 0.0266223C7.54744 0.0482267 6.98738 0.295945 6.57384 0.718622L9.43303 3.51595C9.12945 3.82624 8.71831 4.00809 8.28451 4.02395L8.13837 0.0266223ZM6.58922 0.703073L4.14322 3.14907L6.97165 5.9775L9.41765 3.5315L6.58922 0.703073ZM4.11886 3.17386C3.69383 3.61394 3.45864 4.20334 3.46396 4.81513L7.4638 4.78038C7.4676 5.21737 7.29961 5.63837 6.99601 5.95271L4.11886 3.17386ZM3.46396 4.81513C3.46927 5.42692 3.71466 6.01215 4.14728 6.44477L6.97571 3.61635C7.28473 3.92536 7.46001 4.34338 7.4638 4.78038L3.46396 4.81513ZM4.14728 6.44477C4.5799 6.87739 5.16513 7.12279 5.77693 7.1281L5.81168 3.12825C6.24868 3.13205 6.6667 3.30733 6.97571 3.61635L4.14728 6.44477ZM5.77693 7.1281C6.38872 7.13342 6.97812 6.89823 7.41819 6.4732L4.63935 3.59604C4.95369 3.29245 5.37469 3.12446 5.81168 3.12825L5.77693 7.1281ZM7.44273 6.44909L9.32007 4.57242L6.49214 1.74349L4.61481 3.62016L7.44273 6.44909ZM5.9061 3.15795V10.3193H9.9061V3.15795H5.9061ZM5.9061 10.3193C5.9061 10.9381 6.15193 11.5316 6.58952 11.9692L9.41795 9.14078C9.73051 9.45334 9.9061 9.87727 9.9061 10.3193H5.9061ZM6.58952 11.9692C7.02711 12.4068 7.62061 12.6526 8.23944 12.6526V8.65262C8.68146 8.65262 9.10538 8.82821 9.41795 9.14078L6.58952 11.9692ZM8.23944 12.6526C8.85828 12.6526 9.45177 12.4068 9.88935 11.9692L7.06093 9.14078C7.37349 8.82821 7.79741 8.65262 8.23944 8.65262V12.6526ZM9.88935 11.9692C10.3269 11.5316 10.5728 10.9381 10.5728 10.3193H6.57277C6.57277 9.87726 6.74837 9.45333 7.06093 9.14078L9.88935 11.9692ZM10.5728 10.3193V3.15795H6.57277V10.3193H10.5728ZM7.15881 4.57242L9.03614 6.44909L11.8641 3.62016L9.98673 1.74349L7.15881 4.57242ZM9.06068 6.4732C9.50075 6.89823 10.0902 7.13342 10.702 7.1281L10.6672 3.12825C11.1042 3.12446 11.5252 3.29245 11.8395 3.59604L9.06068 6.4732ZM10.702 7.1281C11.3137 7.12279 11.899 6.87739 12.3316 6.44477L9.50316 3.61635C9.81218 3.30733 10.2302 3.13205 10.6672 3.12825L10.702 7.1281ZM12.3316 6.44477C12.7642 6.01215 13.0096 5.42692 13.0149 4.81513L9.01507 4.78038C9.01887 4.34339 9.19415 3.92536 9.50316 3.61635L12.3316 6.44477ZM13.0149 4.81513C13.0202 4.20334 12.7851 3.61394 12.36 3.17386L9.48286 5.95271C9.17926 5.63837 9.01127 5.21737 9.01507 4.78038L13.0149 4.81513ZM12.3355 3.14888L9.88879 0.702881L7.06075 3.53169L9.50742 5.97769L12.3355 3.14888Z" fill="white" mask="url(#path-3-inside-2_3339_52)"/>
</svg>
