<svg width="17" height="16" viewBox="0 0 17 16" fill="none" xmlns="http://www.w3.org/2000/svg">
<path d="M5.68616 12V11.3334H10.5222C11.2137 11.3334 11.8026 11.0963 12.2888 10.622C12.7759 10.1478 13.0195 9.56871 13.0195 8.88471C13.0195 8.20071 12.7762 7.62382 12.2895 7.15404C11.8024 6.68382 11.2133 6.44871 10.5222 6.44871H5.36083L7.3375 8.42537L6.8655 8.89737L4.0835 6.11537L6.8655 3.33337L7.3375 3.80537L5.36083 5.78204H10.5222C11.3946 5.78204 12.1402 6.08293 12.7588 6.68471C13.3766 7.28649 13.6855 8.01982 13.6855 8.88471C13.6855 9.7496 13.3766 10.4852 12.7588 11.0914C12.1411 11.6976 11.3953 12.0005 10.5215 12H5.68616Z" fill="white"/>
</svg>
